<svg xmlns="http://www.w3.org/2000/svg" viewBox="0 0 670 370" width="670" height="370"><defs><clipPath id="a"><path d="M359.164 306.06h131.685v56H359.164z"/></clipPath><clipPath id="b"><path d="M524.072 306.06h130.653v56H524.071z"/></clipPath><clipPath id="c"><path d="M186.983 127.653h131.685v56H186.983z"/></clipPath><clipPath id="d"><path d="M359.164 127.653h131.685v56H359.164z"/></clipPath><clipPath id="e"><path d="M187.499 306.06h130.654v56H187.499z"/></clipPath><clipPath id="f"><path d="M359.68 203.902h130.653v56H359.679z"/></clipPath><clipPath id="g"><path d="M15.275 168.586h130.653v56H15.275z"/></clipPath><clipPath id="h"><path d="M187.499 30.94h130.654v56H187.499z"/></clipPath><clipPath id="i"><path d="M359.68 30.94h130.653v56H359.679z"/></clipPath><clipPath id="j"><path d="M187.499 202.487h130.654v54H187.499z"/></clipPath><clipPath id="k"><path d="M15.275 30.94h130.653v54H15.275z"/></clipPath></defs><g fill="none"><title>Diagram1</title><path fill="#fff" d="M0 0h670v370H0z"/><title>Layer 1</title><circle cx="197.499" cy="17.415" r="10" fill="#ccc"/><text transform="translate(194.499 10.415)" fill="#000"><tspan font-family="Roboto" font-size="12" font-weight="400" x="0" y="11">1</tspan></text><title>zone internal - blue</title><path fill="#e1f6fe" d="M166.983 107.454h171.685v178.265H166.983z"/><path d="M166.983 107.454h171.685v178.265H166.983z"/><title>Cloud Functions</title><path fill="#fff" d="M359.164 306.061h131.685v56H359.164z"/><path stroke="#dfdfdf" stroke-linecap="round" stroke-linejoin="round" stroke-width="2" clip-path="url(#a)" d="M359.164 306.061h131.685v56H359.164z"/><text transform="translate(410.164 320.06)" fill="#212121"><tspan font-family="Roboto" font-size="12" font-weight="400" x="0" y="11">Cloud </tspan> <tspan font-family="Roboto" font-size="12" font-weight="400" x="0" y="25">Functions</tspan></text><title>Cloud Functions</title><title>Fill-1</title><path d="M402.83 332.774l-5.754-10.006c-.462-.798-1.298-1.285-2.158-1.285H383.41c-.922 0-1.728.54-2.158 1.285l-5.754 9.986a2.51 2.51 0 0 0 0 2.502l5.753 10.051c.461.799 1.298 1.332 2.158 1.332h11.508c.923 0 1.728-.581 2.158-1.326l5.754-10.006a2.566 2.566 0 0 0 0-2.533" fill="#4285f4"/><title>Fill-4</title><path d="M395.738 330.84l-.819.819.18 5.16-.756 1.096-.438-.438h.402v-1.796l-1.93-1.93-1.39.693.04.155-4.917-4.917-2.367 1.194-.288 2.419.819 4.426 1.186 1.163-.508.823 6.932 6.932h3.033c.923 0 1.728-.581 2.158-1.326l4.796-8.34z" fill="#000" fill-opacity=".07"/><title>Fill-6</title><path d="M384.917 339.653l1.159-1.158-1.736-1.736v-5.397l1.736-1.735-1.159-1.158-2.316 2.316v6.551z" fill="#fff"/><title>Fill-8</title><circle cx="386.709" cy="334.061" r=".821" fill="#fff"/><title>Fill-10</title><circle cx="389.164" cy="334.061" r=".821" fill="#fff"/><title>Fill-12</title><circle cx="391.619" cy="334.061" r=".821" fill="#fff"/><title>Fill-14</title><path d="M393.399 328.469l-1.158 1.158 1.735 1.735v5.397l-1.735 1.736 1.158 1.158 2.316-2.317v-6.55z" fill="#fff"/><title>Cloud Translation API</title><path fill="#fff" d="M524.072 306.061h130.654v56H524.072z"/><path stroke="#dfdfdf" stroke-linecap="round" stroke-linejoin="round" stroke-width="2" clip-path="url(#b)" d="M524.072 306.061h130.654v56H524.072z"/><text transform="translate(575.072 320.06)" fill="#212121"><tspan font-family="Roboto" font-size="12" font-weight="400" x="0" y="11">Translation </tspan> <tspan font-family="Roboto" font-size="12" font-weight="400" x="0" y="25">API</tspan></text><title>Cloud Translation API</title><title>Fill-1</title><path d="M567.738 332.774l-5.754-10.006c-.462-.798-1.298-1.285-2.158-1.285h-11.508c-.922 0-1.728.54-2.158 1.285l-5.754 9.986a2.51 2.51 0 0 0 0 2.501l5.753 10.052c.461.799 1.298 1.332 2.158 1.332h11.508c.922 0 1.727-.581 2.158-1.326l5.754-10.007a2.566 2.566 0 0 0 0-2.532" fill="#4285f4"/><title>Fill-4</title><path d="M560.31 330.874l-1.007.47-1.55 3.93-.885-.886-1.518-.156-2.749-2.748-1.592.202-1.557-1.557-.758 1.489-3.2.655 2.871 2.872-2.469 2.437 9.057 9.057h4.872c.922 0 1.727-.581 2.158-1.326l4.66-8.105z" fill="#000" fill-opacity=".07"/><title>Fill-7</title><path d="M560.798 334.9l-1.05-3.014-1.092 3.015zm-1.532-4.026h1.043l2.477 6.823h-1.013l-.712-2.045h-2.677l-.74 2.045h-.948z" fill="#fff"/><title>Fill-9</title><path d="M551.13 332.748h-.987a8.418 8.418 0 0 1-.316.629 6.125 6.125 0 0 1-.736 1.049 8.041 8.041 0 0 1-.78-1.08 5.45 5.45 0 0 1-.316-.598h-.966c.134.22.283.621.451.915.295.513.615.968.961 1.395a8.672 8.672 0 0 1-1.29.931c-.49.297-1.073.552-1.749.77l.494.823a11.076 11.076 0 0 0 1.737-.837c.533-.32 1.014-.666 1.44-1.037.203.186.428.363.677.534a11.212 11.212 0 0 0 1.624.922c.285.132.57.247.853.345l.484-.882a13.355 13.355 0 0 1-.745-.265 8.916 8.916 0 0 1-1.545-.78 5.234 5.234 0 0 1-.698-.524 7.33 7.33 0 0 0 .97-1.374c.163-.3.308-.717.438-.936" fill="#fff"/><title>Fill-11</title><path d="M556.868 334.388l-1.559-.9v.703h-3.046v.451h3.046v.646z" fill="#fff"/><title>Fill-13</title><path d="M549.452 331.484v-1.355h-.912v1.355h-3.047v.79h7.109v-.79z" fill="#fff"/><title>Cloud Functions</title><path fill="#fff" d="M186.983 127.653h131.685v56H186.983z"/><path stroke="#dfdfdf" stroke-linecap="round" stroke-linejoin="round" stroke-width="2" clip-path="url(#c)" d="M186.983 127.653h131.685v56H186.983z"/><text transform="translate(237.983 141.653)" fill="#212121"><tspan font-family="Roboto" font-size="12" font-weight="400" x="0" y="11">Cloud </tspan> <tspan font-family="Roboto" font-size="12" font-weight="400" x="0" y="25">Functions</tspan></text><title>Cloud Functions</title><title>Fill-1</title><path d="M230.65 154.366l-5.754-10.006c-.462-.799-1.298-1.285-2.158-1.285H211.23c-.922 0-1.728.54-2.158 1.285l-5.754 9.986a2.51 2.51 0 0 0-.001 2.501l5.754 10.052c.461.799 1.298 1.332 2.158 1.332h11.508c.922 0 1.727-.581 2.158-1.326l5.754-10.007a2.566 2.566 0 0 0 0-2.532" fill="#4285f4"/><title>Fill-4</title><path d="M223.558 152.432l-.819.819.18 5.16-.756 1.096-.438-.438h.402v-1.796l-1.93-1.931-1.39.694.04.155-4.917-4.917-2.368 1.194-.287 2.419.819 4.426 1.186 1.163-.508.823 6.931 6.932h3.034c.923 0 1.728-.581 2.158-1.326l4.796-8.34z" fill="#000" fill-opacity=".07"/><title>Fill-6</title><path d="M212.737 161.245l1.158-1.159-1.735-1.735v-5.397l1.735-1.735-1.158-1.158-2.316 2.316v6.551z" fill="#fff"/><title>Fill-8</title><circle cx="214.529" cy="155.653" r=".821" fill="#fff"/><title>Fill-10</title><circle cx="216.984" cy="155.653" r=".821" fill="#fff"/><title>Fill-12</title><circle cx="219.439" cy="155.653" r=".821" fill="#fff"/><title>Fill-14</title><path d="M221.219 150.06l-1.158 1.159 1.735 1.735v5.397l-1.735 1.736 1.158 1.158 2.316-2.317v-6.55z" fill="#fff"/><title>Cloud Functions</title><path fill="#fff" d="M359.164 127.653h131.685v56H359.164z"/><path stroke="#dfdfdf" stroke-linecap="round" stroke-linejoin="round" stroke-width="2" clip-path="url(#d)" d="M359.164 127.653h131.685v56H359.164z"/><text transform="translate(410.164 141.653)" fill="#212121"><tspan font-family="Roboto" font-size="12" font-weight="400" x="0" y="11">Cloud </tspan> <tspan font-family="Roboto" font-size="12" font-weight="400" x="0" y="25">Functions</tspan></text><title>Cloud Functions</title><title>Fill-1</title><path d="M402.83 154.366l-5.754-10.006c-.462-.799-1.298-1.285-2.158-1.285H383.41c-.922 0-1.728.54-2.158 1.285l-5.754 9.986a2.51 2.51 0 0 0 0 2.501l5.753 10.052c.461.799 1.298 1.332 2.158 1.332h11.508c.923 0 1.728-.581 2.158-1.326l5.754-10.007a2.566 2.566 0 0 0 0-2.532" fill="#4285f4"/><title>Fill-4</title><path d="M395.738 152.432l-.819.819.18 5.16-.756 1.096-.438-.438h.402v-1.796l-1.93-1.931-1.39.694.04.155-4.917-4.917-2.367 1.194-.288 2.419.819 4.426 1.186 1.163-.508.823 6.932 6.932h3.033c.923 0 1.728-.581 2.158-1.326l4.796-8.34z" fill="#000" fill-opacity=".07"/><title>Fill-6</title><path d="M384.917 161.245l1.159-1.159-1.736-1.735v-5.397l1.736-1.735-1.159-1.158-2.316 2.316v6.551z" fill="#fff"/><title>Fill-8</title><circle cx="386.709" cy="155.653" r=".821" fill="#fff"/><title>Fill-10</title><circle cx="389.164" cy="155.653" r=".821" fill="#fff"/><title>Fill-12</title><circle cx="391.619" cy="155.653" r=".821" fill="#fff"/><g><title>Fill-14</title><path d="M393.399 150.06l-1.158 1.159 1.735 1.735v5.397l-1.735 1.736 1.158 1.158 2.316-2.317v-6.55z" fill="#fff"/></g><g><title>Cloud Pub/Sub</title><path fill="#fff" d="M187.499 306.061h130.654v56H187.499z"/><path stroke="#dfdfdf" stroke-linecap="round" stroke-linejoin="round" stroke-width="2" clip-path="url(#e)" d="M187.499 306.061h130.654v56H187.499z"/><text transform="translate(238.499 327.06)" fill="#212121"><tspan font-family="Roboto" font-size="12" font-weight="400" x="0" y="11">Pub/Sub</tspan></text><title>Cloud Pub/Sub</title><title>Fill-1</title><path d="M231.165 332.774l-5.754-10.006c-.461-.798-1.297-1.285-2.158-1.285h-11.508c-.922 0-1.727.54-2.158 1.285l-5.754 9.986a2.51 2.51 0 0 0 0 2.502l5.754 10.051c.46.799 1.297 1.332 2.158 1.332h11.508c.922 0 1.727-.581 2.158-1.326l5.754-10.006a2.566 2.566 0 0 0 0-2.533" fill="#4285f4"/><title>Fill-4</title><path d="M223.016 330.505l-1.282.266-3.195-3.195-1.021 1.912-.555 2.211.938.938-1.801.368-2.472-2.47-1.678 1.613 3.09 3.088-3.274 2.604 8.799 8.799h2.688c.922 0 1.727-.581 2.158-1.326l4.532-7.881z" fill="#000" fill-opacity=".07"/><title>Fill-7</title><path d="M221.624 330.334a1.164 1.164 0 1 1 1.166 2.016 1.164 1.164 0 0 1-1.166-2.016" fill="#fff"/><title>Fill-9</title><path d="M212.21 332.35a1.165 1.165 0 1 1 1.164-2.017 1.165 1.165 0 0 1-1.165 2.017" fill="#fff"/><title>Fill-11</title><path d="M218.664 339.496a1.164 1.164 0 1 1-2.329 0 1.164 1.164 0 0 1 2.329 0" fill="#fff"/><title>Fill-13</title><path d="M217.5 331.64c.184 0 .363.024.537.063v-3.079h-1.075v3.079c.173-.04.352-.062.537-.062" fill="#fff"/><title>Fill-15</title><path d="M219.811 334.775a2.41 2.41 0 0 1-.54.929l2.666 1.54.538-.931z" fill="#fff"/><title>Fill-17</title><path d="M215.187 334.775l-2.664 1.538.538.93 2.666-1.539a2.409 2.409 0 0 1-.54-.93" fill="#fff"/><title>Fill-19</title><path d="M219.38 334.06a1.881 1.881 0 1 1-3.761 0 1.881 1.881 0 0 1 3.762 0" fill="#fff"/><g><title>Fill-21</title><path d="M212.053 335.497a1.48 1.48 0 1 1 1.477 2.564 1.48 1.48 0 0 1-1.477-2.564" fill="#fff"/></g><g><title>Fill-23</title><path d="M221.468 338.058a1.479 1.479 0 1 1 1.48-2.558 1.479 1.479 0 0 1-1.48 2.558" fill="#fff"/></g><g><title>Fill-25</title><path d="M218.977 328.624a1.479 1.479 0 1 1-2.957 0 1.479 1.479 0 0 1 2.957 0" fill="#fff"/></g></g><g><title>Cloud Pub/Sub</title><path fill="#fff" d="M359.679 203.902h130.654v56H359.679z"/><path stroke="#dfdfdf" stroke-linecap="round" stroke-linejoin="round" stroke-width="2" clip-path="url(#f)" d="M359.679 203.902h130.654v56H359.679z"/><text transform="translate(410.68 224.902)" fill="#212121"><tspan font-family="Roboto" font-size="12" font-weight="400" x="0" y="11">Pub/Sub</tspan></text><title>Cloud Pub/Sub</title><title>Fill-1</title><path d="M403.345 230.615l-5.754-10.006c-.461-.798-1.297-1.285-2.157-1.285h-11.509c-.922 0-1.727.54-2.158 1.285l-5.754 9.986a2.51 2.51 0 0 0 0 2.502l5.754 10.051c.461.799 1.297 1.332 2.158 1.332h11.508c.922 0 1.727-.581 2.158-1.326l5.754-10.006a2.566 2.566 0 0 0 0-2.533" fill="#4285f4"/><title>Fill-4</title><path d="M395.196 228.346l-1.282.266-3.195-3.195-1.021 1.912-.555 2.211.938.939-1.801.367-2.472-2.47-1.678 1.613 3.09 3.088-3.274 2.604 8.8 8.799h2.687c.922 0 1.727-.581 2.158-1.326l4.532-7.881z" fill="#000" fill-opacity=".07"/><title>Fill-7</title><path d="M393.804 228.175a1.164 1.164 0 1 1 1.166 2.016 1.164 1.164 0 0 1-1.166-2.016" fill="#fff"/><title>Fill-9</title><path d="M384.39 230.191a1.165 1.165 0 1 1 1.164-2.017 1.165 1.165 0 0 1-1.165 2.017" fill="#fff"/><title>Fill-11</title><path d="M390.844 237.337a1.164 1.164 0 1 1-2.329 0 1.164 1.164 0 0 1 2.329 0" fill="#fff"/><title>Fill-13</title><path d="M389.68 229.482c.184 0 .364.022.537.062v-3.079h-1.075v3.079c.173-.04.352-.062.537-.062" fill="#fff"/><title>Fill-15</title><path d="M391.991 232.616a2.41 2.41 0 0 1-.54.929l2.667 1.54.537-.931z" fill="#fff"/><title>Fill-17</title><path d="M387.367 232.616l-2.664 1.538.538.93 2.667-1.539a2.409 2.409 0 0 1-.54-.93" fill="#fff"/><title>Fill-19</title><path d="M391.56 231.902a1.881 1.881 0 1 1-3.761-.001 1.881 1.881 0 0 1 3.762 0" fill="#fff"/><g><title>Fill-21</title><path d="M384.233 233.338a1.48 1.48 0 1 1 1.477 2.564 1.48 1.48 0 0 1-1.477-2.564" fill="#fff"/></g><g><title>Fill-23</title><path d="M393.648 235.899a1.479 1.479 0 1 1 1.48-2.558 1.479 1.479 0 0 1-1.48 2.558" fill="#fff"/></g><g><title>Fill-25</title><path d="M391.158 226.465a1.479 1.479 0 1 1-2.958 0 1.479 1.479 0 0 1 2.958 0" fill="#fff"/></g></g><g><title>Cloud Vision API</title><path fill="#fff" d="M15.275 168.586h130.654v56H15.275z"/><path stroke="#dfdfdf" stroke-linecap="round" stroke-linejoin="round" stroke-width="2" clip-path="url(#g)" d="M15.275 168.586h130.654v56H15.275z"/><text transform="translate(66.275 189.586)" fill="#212121"><tspan font-family="Roboto" font-size="12" font-weight="400" x="0" y="11">Vision API</tspan></text><title>Cloud Vision API</title><title>Fill-1</title><path d="M58.94 195.3l-5.753-10.006c-.462-.799-1.298-1.286-2.158-1.286H39.521c-.922 0-1.727.54-2.158 1.285l-5.754 9.987a2.51 2.51 0 0 0 0 2.501l5.753 10.052c.462.799 1.298 1.332 2.158 1.332h11.508c.923 0 1.728-.582 2.158-1.326l5.754-10.007a2.566 2.566 0 0 0 0-2.532" fill="#4285f4"/><title>Fill-4</title><path d="M51.837 196.586l-6.562-3.864-6.563 3.864 12.56 12.56c.818-.092 1.522-.63 1.914-1.307l3.616-6.288z" fill="#000" fill-opacity=".07"/><title>Fill-6</title><path d="M41.173 196.586l4.102-2.87 4.101 2.87-4.101 2.872zm4.102-4.921l-6.563 4.921 6.563 4.922 6.562-4.922z" fill="#fff"/><g><title>Fill-8</title><path d="M45.278 195.356a1.23 1.23 0 1 1 0 2.46 1.23 1.23 0 0 1 0-2.46" fill="#fff"/></g></g><g><title>Cloud Storage</title><path fill="#fff" d="M187.499 30.941h130.654v56H187.499z"/><path stroke="#dfdfdf" stroke-linecap="round" stroke-linejoin="round" stroke-width="2" clip-path="url(#h)" d="M187.499 30.941h130.654v56H187.499z"/><text transform="translate(238.499 51.94)" fill="#212121"><tspan font-family="Roboto" font-size="12" font-weight="400" x="0" y="11">Storage</tspan></text><title>Cloud Storage</title><title>Fill-1</title><path d="M231.165 57.655l-5.754-10.006c-.461-.8-1.297-1.286-2.158-1.286h-11.508c-.922 0-1.727.54-2.158 1.285l-5.754 9.986a2.51 2.51 0 0 0 0 2.502l5.754 10.051c.46.8 1.297 1.332 2.158 1.332h11.508c.922 0 1.727-.581 2.158-1.326l5.754-10.006a2.566 2.566 0 0 0 0-2.532" fill="#4285f4"/><title>Fill-4</title><path d="M222.2 55.999l-7.914.727-1.533 1.529 1.303 1.304-1.29 2.29 9.669 9.67h.818c.922 0 1.727-.581 2.158-1.326l4.01-6.973z" fill="#000" fill-opacity=".07"/><title>Fill-6</title><path d="M220.623 57.682a.543.543 0 0 1 0-1.085.542.542 0 1 1 0 1.085m1.404-1.745h-9.064a.266.266 0 0 0-.266.266l.001 1.874c0 .145.12.265.265.265h9.064c.146 0 .265-.12.265-.265v-1.874a.266.266 0 0 0-.265-.266" fill="#fff"/><g><title>Fill-8</title><path d="M220.623 61.284a.541.541 0 1 1-.001-1.085.541.541 0 0 1 .001 1.085m1.404-1.745l-9.064.001a.266.266 0 0 0-.266.265l.001 1.874c0 .145.12.265.265.265h9.064c.146 0 .265-.12.265-.265v-1.874a.266.266 0 0 0-.265-.266" fill="#fff"/></g></g><g><title>Cloud Storage</title><path fill="#fff" d="M359.679 30.941h130.654v56H359.679z"/><path stroke="#dfdfdf" stroke-linecap="round" stroke-linejoin="round" stroke-width="2" clip-path="url(#i)" d="M359.679 30.941h130.654v56H359.679z"/><text transform="translate(410.68 51.94)" fill="#212121"><tspan font-family="Roboto" font-size="12" font-weight="400" x="0" y="11">Storage</tspan></text><title>Cloud Storage</title><title>Fill-1</title><path d="M403.345 57.655l-5.754-10.006c-.461-.8-1.297-1.286-2.157-1.286h-11.509c-.922 0-1.727.54-2.158 1.285l-5.754 9.986a2.51 2.51 0 0 0 0 2.502l5.754 10.051c.461.8 1.297 1.332 2.158 1.332h11.508c.922 0 1.727-.581 2.158-1.326l5.754-10.006a2.566 2.566 0 0 0 0-2.532" fill="#4285f4"/><title>Fill-4</title><path d="M394.38 55.999l-7.914.727-1.533 1.529 1.303 1.304-1.29 2.29 9.669 9.67h.818c.922 0 1.727-.581 2.158-1.326l4.01-6.973z" fill="#000" fill-opacity=".07"/><title>Fill-6</title><path d="M392.803 57.682a.543.543 0 0 1 0-1.085.542.542 0 1 1 0 1.085m1.404-1.745h-9.064a.266.266 0 0 0-.265.266v1.874c0 .145.12.265.265.265h9.064c.146 0 .265-.12.265-.265v-1.874a.266.266 0 0 0-.265-.266" fill="#fff"/><g><title>Fill-8</title><path d="M392.803 61.284a.541.541 0 1 1-.001-1.085.541.541 0 0 1 .001 1.085m1.404-1.745l-9.064.001a.266.266 0 0 0-.265.265v1.874c0 .145.12.265.265.265h9.064c.146 0 .265-.12.265-.265v-1.874a.266.266 0 0 0-.265-.266" fill="#fff"/></g></g><g><path fill="#fff" d="M187.499 202.487h130.654v54H187.499z"/><path stroke="#dfdfdf" stroke-linecap="round" stroke-linejoin="round" stroke-width="2" clip-path="url(#j)" d="M187.499 202.487h130.654v54H187.499z"/><text transform="translate(239.499 222.487)" fill="#212121"><tspan font-family="Roboto" font-size="12" font-weight="400" x="0" y="11">Images</tspan></text><path d="M230.686 236.098v-13.223c0-1.04-.973-1.89-2.163-1.89h-15.147c-1.19 0-2.164.85-2.164 1.89v13.223c0 1.04.974 1.89 2.164 1.89h15.147c1.19 0 2.163-.85 2.163-1.89zm-13.523-5.195l2.704 2.843 3.787-4.26 4.869 5.668h-15.147z" fill="#616162"/></g><g><title>Stroke-21</title><path stroke="#fff" stroke-linejoin="round" stroke-width="1.732" d="M191.393 260.386h122.865"/></g><g><title>Stroke-22</title><path stroke="#fff" stroke-linejoin="round" stroke-width="1.601" d="M196.042 265.052H309.61"/></g><g><path fill="#fff" d="M15.275 30.941h130.654v54H15.275z"/><path stroke="#dfdfdf" stroke-linecap="round" stroke-linejoin="round" stroke-width="2" clip-path="url(#k)" d="M15.275 30.941h130.654v54H15.275z"/><text transform="translate(67.275 50.94)" fill="#212121"><tspan font-family="Roboto" font-size="12" font-weight="400" x="0" y="11">Images</tspan></text><path d="M58.462 64.553V51.329c0-1.039-.974-1.889-2.164-1.889H41.152c-1.19 0-2.164.85-2.164 1.89v13.223c0 1.039.973 1.889 2.164 1.889h15.146c1.19 0 2.164-.85 2.164-1.89zm-13.524-5.195l2.705 2.843 3.787-4.26 4.868 5.667H41.152z" fill="#616162"/></g><g><circle cx="173.947" cy="314.755" r="10" fill="#ccc"/><text transform="translate(170.947 307.755)" fill="#000"><tspan font-family="Roboto" font-size="12" font-weight="400" x="0" y="11">3</tspan></text></g><g><circle cx="369.679" cy="273.651" r="10" fill="#ccc"/><text transform="translate(366.68 266.651)" fill="#000"><tspan font-family="Roboto" font-size="12" font-weight="400" x="0" y="11">4</tspan></text></g><g><circle cx="337.053" cy="320.188" r="10" fill="#ccc"/><text transform="translate(334.053 313.188)" fill="#000"><tspan font-family="Roboto" font-size="12" font-weight="400" x="0" y="11">5</tspan></text></g><g><circle cx="135.928" cy="155.108" r="10" fill="#ccc"/><text transform="translate(132.928 148.108)" fill="#000"><tspan font-family="Roboto" font-size="12" font-weight="400" x="0" y="11">2</tspan></text></g><g><circle cx="369.164" cy="113.959" r="10" fill="#ccc"/><text transform="translate(366.164 106.959)" fill="#000"><tspan font-family="Roboto" font-size="12" font-weight="400" x="0" y="11">6</tspan></text></g><g><circle cx="545.25" cy="58.941" r="10" fill="#ccc"/><text transform="translate(542.25 51.94)" fill="#000"><tspan font-family="Roboto" font-size="12" font-weight="400" x="0" y="11">7</tspan></text></g><g><path d="M145.614 58.44h32.935a.5.5 0 0 0 0-1h-32.935a.5.5 0 1 0 0 1zm40.935-1h-8v1h8zm-4.354-3.146l4 4v-.707l-4 4 .707.707 4-4 .354-.353-.354-.354-4-4z" fill="#616161"/></g><g><path d="M252.326 86.94v4.521l.064 7.462a.5.5 0 1 0 1-.008l-.064-7.458v-4.516a.5.5 0 1 0-1 0zm1.134 19.974l-.07-8-1 .01.07 8zm3.108-4.38l-3.965 4.034.707-.006-4.034-3.965-.701.713 4.034 3.965.357.35.35-.356 3.965-4.034z" fill="#616161"/></g><g><path d="M424.506 96.062v30.92a.5.5 0 1 0 1 0v-30.92a.5.5 0 1 0-1 0zm0-8v8h1v-8zm-3.146 4.354l4-4h-.708l4 4 .708-.707-4-4-.354-.354-.353.354-4 4z" fill="#616161"/></g><g><path d="M491.374 59.44h32.935a.5.5 0 1 0 0-1h-32.935a.5.5 0 0 0 0 1zm40.935-1h-8v1h8zm-4.354-3.146l4 4v-.707l-4 4 .707.707 4-4 .354-.353-.353-.354-4-4z" fill="#616161"/></g><g><path d="M155.828 197.086h11.155a.5.5 0 0 0 0-1h-11.155a.5.5 0 0 0 0 1zm-8 0h8v-1h-8zm4.354 3.147l-4-4v.707l4-4-.707-.707-4 4-.354.353.354.354 4 4z" fill="#616161"/></g><g><path d="M339.956 232.402h9.802a.5.5 0 0 0 0-1h-9.802a.5.5 0 0 0 0 1zm17.802-1h-8v1h8zm-4.354-3.147l4 4v-.707l-4 4 .707.707 4-4 .354-.353-.354-.354-4-4z" fill="#616161"/></g><g><path d="M424.506 193.553v9.92a.5.5 0 1 0 1 0v-9.92a.5.5 0 1 0-1 0zm0-8v8h1v-8zm-3.146 4.353l4-4h-.708l4 4 .708-.707-4-4-.354-.353-.353.353-4 4z" fill="#616161"/></g><g><path d="M424.506 269.282v36.437a.5.5 0 1 0 1 0v-36.437a.5.5 0 0 0-1 0zm0-8v8h1v-8zm-3.146 4.354l4-4h-.708l4 4 .708-.707-4-4-.354-.354-.353.354-4 4z" fill="#616161"/></g><g><path d="M491.374 334.56h23.935a.5.5 0 0 0 0-1h-23.935a.5.5 0 0 0 0 1zm31.935-1h-8v1h8zm-4.354-3.146l4 4v-.707l-4 4 .707.707 4-4 .354-.353-.353-.354-4-4z" fill="#616161"/></g><g><path d="M318.763 334.56h31.935a.5.5 0 0 0 0-1h-31.935a.5.5 0 0 0 0 1zm39.935-1h-8v1h8zm-4.354-3.146l4 4v-.707l-4 4 .707.707 4-4 .354-.353-.354-.354-4-4z" fill="#616161"/></g><g><path d="M252.326 286.386v11.1a.5.5 0 1 0 1 0v-11.1a.5.5 0 0 0-1 0zm1 19.1v-8h-1v8zm3.146-4.354l-4 4h.707l-4-4-.707.707 4 4 .354.354.353-.354 4-4z" fill="#616161"/></g></g></svg>